<svg xmlns="http://www.w3.org/2000/svg" xmlns:xlink="http://www.w3.org/1999/xlink" version="1.1" x="0px" y="0px" viewBox="0 0 612 792" enable-background="new 0 0 612 792" xml:space="preserve">
<g>
	<path fill="#FFFFFF" d="M306 101.6C143.4 101.6 11.6 233.4 11.6 396S143.4 690.4 306 690.4S600.4 558.6 600.4 396 S468.6 101.6 306 101.6z M420.5 478.5c39.2 0 37.8-25.3 37.8-25.3h41.5c0 67.3-80.6 62.7-80.6 62.7c-96.7 0-90.5-90.1-90.5-90.1 s-0.1-90.5 90.5-90.5c95.4 0 82 102.3 82 102.3H379.1C379.1 481.2 420.5 478.5 420.5 478.5z M368.5 318.1v-29h97.2v29H368.5z M244.5 510.9h-68.6h-2h-52V275.2h52h2h68.6c37.3 0 66.7 20.6 66.7 62.7c0 42.2-35.9 44.9-35.9 44.9c47.4 0 44.1 58.5 44.1 58.5 C319.3 513.2 244.5 510.9 244.5 510.9z"/>
	<path fill="#FFFFFF" d="M420.1 369.7c-36.4 0-41.5 36.3-41.5 36.3H456C456 406 456.5 369.7 420.1 369.7z"/>
	<path fill="#FFFFFF" d="M244.5 406h-68.6v63h60.7c1 0 2.6 0 4.4 0c9.8-0.2 28.3-3.1 28.3-30.6C269.3 405.7 244.5 406 244.5 406z"/>
	<path fill="#FFFFFF" d="M261.1 341.6c0-24.5-16.7-24.5-16.7-24.5h-8.8h-59.8v52.6h64.3C251.3 369.7 261.1 366.1 261.1 341.6z"/>
</g>
</svg>
