<?xml version="1.0" encoding="utf-8"?>
<!-- Generator: Adobe Illustrator 18.1.0, SVG Export Plug-In . SVG Version: 6.00 Build 0)  -->
<svg version="1.1" id="dribble" xmlns="http://www.w3.org/2000/svg" xmlns:xlink="http://www.w3.org/1999/xlink" x="0px" y="0px"
	 viewBox="0 0 612 792" enable-background="new 0 0 612 792" xml:space="preserve">
<g>
	<path fill="#FFFFFF" d="M306,102.2C143.8,102.2,12.2,233.8,12.2,396S143.8,689.8,306,689.8S599.8,558.2,599.8,396
		S468.2,102.2,306,102.2z M306,577.9c-100.5,0-181.9-81.5-181.9-181.9S205.5,214.1,306,214.1S487.9,295.5,487.9,396
		S406.5,577.9,306,577.9z"/>
	<path fill="#FFFFFF" d="M306,236.8c-87.8,0-159.2,71.4-159.2,159.2S218.2,555.2,306,555.2S465.2,483.8,465.2,396
		S393.8,236.8,306,236.8z M306,260.2c34.6,0,66.1,13,90.1,34.3c-2.4,3.5-22.9,31-71.3,49.1c-22.3-40.9-47-74.6-50.7-79.6
		C284.4,261.5,295,260.2,306,260.2z M248.2,273.1c3.6,4.9,27.9,38.6,50.4,78.6C235,368.7,179,368.4,172.9,368.4
		C181.7,326.2,210.2,291.1,248.2,273.1z M170,396.2c0-1.4,0-2.8,0.1-4.2c5.9,0.1,71.8,1,139.8-19.4c3.9,7.6,7.6,15.4,11,23.1
		c-1.8,0.5-3.6,1-5.4,1.6c-70.1,22.7-107.4,84.5-110.5,89.7C183.3,463,170,431.1,170,396.2z M306,532.2c-31.4,0-60.4-10.7-83.5-28.7
		c2.4-5,30-58.2,106.7-84.9c0.3-0.1,0.6-0.2,0.9-0.3c19.1,49.6,27,91.2,29,103.1C342.8,528.3,324.8,532.2,306,532.2z M382,508.9
		c-1.4-8.3-8.6-48.1-26.4-97c42.6-6.8,80,4.3,84.7,5.8C434.2,455.6,412.5,488.3,382,508.9z M347.3,390.5c-1-2.3-1.9-4.7-2.9-7
		c-2.8-6.6-5.9-13.2-9-19.7c50.3-20.5,73.1-49.7,75.9-53.6c18.9,23.1,30.4,52.6,30.7,84.7C437.5,394,392.5,384.9,347.3,390.5z"/>
</g>
</svg>
