<?xml version="1.0" encoding="utf-8"?>
<!-- Generator: Adobe Illustrator 22.0.1, SVG Export Plug-In . SVG Version: 6.00 Build 0)  -->
<svg version="1.1" id="Layer_1" xmlns="http://www.w3.org/2000/svg" xmlns:xlink="http://www.w3.org/1999/xlink" x="0px" y="0px"
	 viewBox="0 0 96.6 95.4" style="enable-background:new 0 0 96.6 95.4;" xml:space="preserve">
<path d="M53,61.3l0.1-18.7c0-0.8,0.8-1.2,1.5-0.9l13.3,7.8c0.7,0.4,1.5-0.1,1.5-0.9v-8.6c0-0.4-0.2-0.7-0.5-0.9l-20-11.9
	c-0.3-0.2-0.7-0.2-1,0L27.8,39.2c-0.3,0.2-0.5,0.5-0.5,0.9v8.6c0,0.8,0.8,1.3,1.5,0.9l13.4-7.9c0.7-0.4,1.5,0.1,1.5,0.9l-0.1,18.8
	c0,0.4-0.2,0.7-0.5,0.9L24.5,73.1C23.8,73.5,23,73,23,72.3v-2.8c0-0.4,0.2-0.7,0.5-0.9l15.3-9c0.3-0.2,0.5-0.5,0.5-0.8l0.1-8.6
	c0-0.8-0.8-1.3-1.5-0.9l-13.4,7.9C23.8,57.5,23,57,23,56.3V37.5c0-0.4,0.2-0.7,0.5-0.9l24.4-14.4c0.3-0.2,0.7-0.2,1,0l24.2,14.3
	c0.3,0.2,0.5,0.5,0.5,0.9v34.9c0,0.8-0.8,1.3-1.5,0.9L53.5,62.2C53.2,62,53,61.7,53,61.3z M57.8,59.6l10.1,5.9
	c0.7,0.4,1.5-0.1,1.5-0.9v-8.6c0-0.4-0.2-0.7-0.5-0.9l-10.1-5.9c-0.7-0.4-1.5,0.1-1.5,0.9v8.6C57.3,59.1,57.5,59.4,57.8,59.6z"/>
</svg>
