<?xml version="1.0" encoding="utf-8"?>
<!-- Generator: Adobe Illustrator 22.0.1, SVG Export Plug-In . SVG Version: 6.00 Build 0)  -->
<svg version="1.1" id="Layer_1" xmlns="http://www.w3.org/2000/svg" xmlns:xlink="http://www.w3.org/1999/xlink" x="0px" y="0px"
	 viewBox="0 0 96.6 95.4" style="enable-background:new 0 0 96.6 95.4;" xml:space="preserve">
<path d="M53.3,60.3l0.1-18.1c0-0.8,0.8-1.2,1.5-0.9l13.3,7.8c0.7,0.4,1.5-0.1,1.5-0.9v-9.2c0-0.4-0.2-0.7-0.5-0.9l-20.3-12
	c-0.3-0.2-0.7-0.2-1,0L27.5,38.1C27.2,38.3,27,38.6,27,39v9.2c0,0.8,0.8,1.3,1.5,0.9l13.4-7.9c0.7-0.4,1.5,0.1,1.5,0.9l-0.1,18.2
	c0,0.4-0.2,0.7-0.5,0.9L24.8,71.8c-0.7,0.4-1.5-0.1-1.5-0.9v-2.2c0-0.4,0.2-0.7,0.5-0.9l15.3-9c0.3-0.2,0.5-0.5,0.5-0.8l0.1-9.2
	c0-0.8-0.8-1.3-1.5-0.9l-13.4,7.9c-0.7,0.4-1.5-0.1-1.5-0.9V36.7c0-0.4,0.2-0.7,0.5-0.9l24.1-14.2c0.3-0.2,0.7-0.2,1,0l24,14.1
	c0.3,0.2,0.5,0.5,0.5,0.9v34.3c0,0.8-0.8,1.3-1.5,0.9L53.8,61.1C53.4,60.9,53.3,60.6,53.3,60.3z M57.5,58.8L68.1,65
	c0.7,0.4,1.5-0.1,1.5-0.9V55c0-0.4-0.2-0.7-0.5-0.9l-10.6-6.2C57.9,47.5,57,48,57,48.8V58C57,58.3,57.2,58.7,57.5,58.8z"/>
</svg>
