<?xml version="1.0" encoding="utf-8"?>
<!-- Generator: Adobe Illustrator 22.0.1, SVG Export Plug-In . SVG Version: 6.00 Build 0)  -->
<svg version="1.1" id="Layer_1" xmlns="http://www.w3.org/2000/svg" xmlns:xlink="http://www.w3.org/1999/xlink" x="0px" y="0px"
	 viewBox="0 0 96.6 95.4" style="enable-background:new 0 0 96.6 95.4;" xml:space="preserve">
<path d="M53.3,57.1l0.1-17.6l0-3.2c0-0.8,0.8-1.2,1.5-0.9l13.3,7.8c0.7,0.4,1.5-0.1,1.5-0.9v-6.4c0-0.4-0.2-0.7-0.5-0.9L50.1,23.7
	c-0.3-0.2-0.7-0.2-1,0L30,34.9c-0.3,0.2-0.5,0.5-0.5,0.9v6.4c0,0.8,0.8,1.3,1.5,0.9l13.4-7.9c0.7-0.4,1.5,0.1,1.5,0.9l-0.1,21
	c0,0.4-0.2,0.7-0.5,0.9L24.8,70c-0.7,0.4-1.5-0.1-1.5-0.9v-5c0-0.4,0.2-0.7,0.5-0.9l15.3-9c0.3-0.2,0.5-0.5,0.5-0.8l0.1-6.4
	c0-0.8-0.8-1.3-1.5-0.9L24.8,54c-0.7,0.4-1.5-0.1-1.5-0.9v-21c0-0.4,0.2-0.7,0.5-0.9l25.3-14.9c0.3-0.2,0.7-0.2,1,0l25.2,14.8
	c0.3,0.2,0.5,0.5,0.5,0.9v37.1c0,0.8-0.8,1.3-1.5,0.9l-20.5-12C53.5,57.7,53.3,57.4,53.3,57.1z M60,54.3l8.2,4.8
	c0.7,0.4,1.5-0.1,1.5-0.9v-6.4c0-0.4-0.2-0.7-0.5-0.9L61,46.1c-0.7-0.4-1.5,0.1-1.5,0.9v6.4C59.5,53.8,59.7,54.1,60,54.3z"/>
</svg>
