<?xml version="1.0" encoding="utf-8"?>
<!-- Generator: Adobe Illustrator 18.1.0, SVG Export Plug-In . SVG Version: 6.00 Build 0)  -->
<svg version="1.1" id="dribble" xmlns="http://www.w3.org/2000/svg" xmlns:xlink="http://www.w3.org/1999/xlink" x="0px" y="0px"
	 viewBox="0 0 612 792" enable-background="new 0 0 612 792" xml:space="preserve">
<path fill="#FFFFFF" d="M306,102.2C143.8,102.2,12.2,233.8,12.2,396S143.8,689.8,306,689.8S599.8,558.2,599.8,396
	S468.2,102.2,306,102.2z M484.8,507.3c-118.4,0-236,0-354.5,0c0-63,0-125.2,0-190c5,3.2,9.1,5.7,13.1,8.5
	c51,36,102.2,71.9,152.9,108.4c8.5,6.1,14,5.9,22.3-0.1c50.7-36.4,101.9-72.3,152.9-108.3c3.8-2.7,7.7-5.1,13.3-8.8
	C484.8,381.8,484.8,444.1,484.8,507.3z M133.7,281.5c117.1,0,231.6,0,349.8,0c-5.8,4.6-8.9,7.3-12.3,9.7
	c-50.8,35.7-101.6,71.2-152.3,107c-6.2,4.4-10.9,7.1-18.7,1.5c-52.8-37.7-106.1-74.8-159.1-112.1
	C139.2,286.4,137.6,284.8,133.7,281.5z"/>
</svg>
