<?xml version="1.0" encoding="utf-8"?>
<!-- Generator: Adobe Illustrator 18.1.0, SVG Export Plug-In . SVG Version: 6.00 Build 0)  -->
<svg version="1.1" id="dribble" xmlns="http://www.w3.org/2000/svg" xmlns:xlink="http://www.w3.org/1999/xlink" x="0px" y="0px"
	 viewBox="0 0 612 792" enable-background="new 0 0 612 792" xml:space="preserve">
<g>
	<path fill="#FFFFFF" d="M306,102.2C143.8,102.2,12.2,233.8,12.2,396S143.8,689.8,306,689.8S599.8,558.2,599.8,396
		S468.2,102.2,306,102.2z M445.8,562.1H168.2V229.9h220.4l57.1,64.7V562.1z"/>
	<path fill="#FFFFFF" d="M352.8,268.8H207.1v254.5h199.7V329.8h-54V268.8z M283.6,289.9c14.8,0,25.5,11.4,25.5,27.2
		c0,15.7-13.6,33.5-25.5,33.5s-25.5-17.9-25.5-33.5C258.1,301.3,268.8,289.9,283.6,289.9z M225.9,398.1c0-8.6,15.1-35,50-37.1V361
		l4.3,0h3.9v0.1c34.9,2,50,28.5,50,37.1v4H225.9V398.1z M387.7,504.5H225.9v-38.9h161.8V504.5z M387.7,414.3v38.9H225.9v-38.9H387.7
		z"/>
</g>
</svg>
