<?xml version="1.0" encoding="utf-8"?>
<!-- Generator: Adobe Illustrator 22.0.1, SVG Export Plug-In . SVG Version: 6.00 Build 0)  -->
<svg version="1.1" id="linkedin" xmlns="http://www.w3.org/2000/svg" xmlns:xlink="http://www.w3.org/1999/xlink" x="0px" y="0px"
	 viewBox="0 0 612 792" style="enable-background:new 0 0 612 792;" xml:space="preserve">
<style type="text/css">
	.st0{fill:#FFFFFF;}
</style>
<path class="st0" d="M306,102.2C143.7,102.2,12.2,233.7,12.2,396S143.7,689.8,306,689.8S599.8,558.3,599.8,396
	S468.3,102.2,306,102.2z M118.7,457.2c-0.1,0.9-0.8,1.5-1.5,1.5c-0.8,0-1.4-0.6-1.6-1.5l-2.8-21.3l2.8-21.7c0.1-0.9,0.7-1.5,1.6-1.5
	c0.8,0,1.4,0.6,1.6,1.5l3.3,21.7L118.7,457.2z M133,470.1c-0.1,0.9-0.8,1.6-1.6,1.6c-0.8,0-1.5-0.7-1.6-1.6l-3.8-34.3
	c0,0,3.8-35,3.8-35.1c0.1-0.9,0.8-1.6,1.6-1.6c0.8,0,1.5,0.6,1.6,1.6l4.3,35.1L133,470.1z M148.5,475.9c-0.1,1.1-0.9,1.9-1.9,1.9
	c-1,0-1.8-0.8-1.9-1.9l-3.6-40.1c0,0,3.6-41.6,3.6-41.6c0.1-1.1,0.9-1.9,1.9-1.9c1,0,1.8,0.8,1.9,1.9l4.1,41.6L148.5,475.9z
	 M164.2,477.2c-0.1,1.3-1.1,2.2-2.3,2.2c-1.2,0-2.2-1-2.3-2.2l-3.4-41.3l3.4-42.7c0.1-1.3,1.1-2.3,2.3-2.3c1.2,0,2.2,1,2.3,2.2
	l3.9,42.7L164.2,477.2z M179.9,477.5c-0.1,1.5-1.2,2.6-2.6,2.6c-1.4,0-2.5-1.1-2.6-2.6l-3.2-41.7l3.2-39.6c0.1-1.5,1.2-2.6,2.6-2.6
	c1.4,0,2.5,1.1,2.6,2.6l3.6,39.7L179.9,477.5z M195.8,477.6L195.8,477.6c-0.1,1.6-1.4,2.9-2.9,2.9c-1.6,0-2.8-1.3-2.9-2.9l-3-41.7
	l3-64.5c0.1-1.6,1.4-2.9,2.9-2.9c1.6,0,2.8,1.3,2.9,2.9l3.4,64.5L195.8,477.6z M211.8,477.3c-0.1,1.8-1.5,3.3-3.3,3.3
	c-1.8,0-3.2-1.4-3.3-3.2l-2.8-41.4c0,0,2.8-79.2,2.8-79.3c0.1-1.8,1.5-3.3,3.3-3.3c1.7,0,3.2,1.4,3.3,3.3l3.2,79.3L211.8,477.3z
	 M228,476.9c-0.1,2-1.7,3.6-3.6,3.6c-2,0-3.5-1.6-3.6-3.6l-2.6-41c0,0,2.6-85.9,2.6-85.9c0.1-2,1.6-3.6,3.6-3.6
	c1.9,0,3.5,1.6,3.6,3.6l3,85.9L228,476.9z M244.2,476.6L244.2,476.6c-0.1,2.2-1.8,3.9-3.9,3.9c-2.1,0-3.9-1.7-3.9-3.9l-2.4-40.7
	l2.4-88.8c0.1-2.2,1.8-3.9,3.9-3.9c2.1,0,3.8,1.7,3.9,3.9l2.7,88.8L244.2,476.6z M260.6,476.3L260.6,476.3c-0.1,2.4-1.9,4.2-4.2,4.2
	c-2.3,0-4.2-1.9-4.2-4.2l-2.2-40.3l2.2-86.5c0-2.4,1.9-4.3,4.2-4.3c2.3,0,4.2,1.9,4.2,4.3l2.5,86.5L260.6,476.3z M277.1,476
	L277.1,476c-0.1,2.6-2.1,4.6-4.6,4.6c-2.5,0-4.5-2-4.6-4.6l-2-40.1l2-83.3c0.1-2.6,2.1-4.6,4.6-4.6s4.5,2,4.6,4.6l2.3,83.4
	L277.1,476z M293.8,475.7c0,2.7-2.2,4.9-4.9,4.9c-2.7,0-4.9-2.2-4.9-4.9c0,0-1.8-39.8-1.8-39.9l1.8-99.1c0-2.7,2.2-4.9,4.9-4.9
	c2.7,0,4.9,2.2,4.9,4.9l2.1,99.2L293.8,475.7z M310.3,475.2L310.3,475.2c0,2.9-2.4,5.2-5.2,5.2c-2.9,0-5.2-2.4-5.2-5.2l-2.1-39.3
	l2.1-108.2c0-2.9,2.4-5.3,5.2-5.3c2.9,0,5.2,2.4,5.2,5.3l2.3,108.2L310.3,475.2z M451.7,480.8c-0.8,0-131.7-0.1-131.8-0.1
	c-2.8-0.3-5.1-2.7-5.1-5.7V322.6c0-2.8,1-4.2,4.6-5.6c9.2-3.6,19.7-5.7,30.4-5.7c43.8,0,79.8,33.9,83.5,77.2
	c5.7-2.4,11.9-3.7,18.4-3.7c26.3,0,47.5,21.5,47.5,48C499.3,459.3,478,480.8,451.7,480.8z"/>
</svg>
