<?xml version="1.0" encoding="utf-8"?>
<!-- Generator: Adobe Illustrator 18.1.0, SVG Export Plug-In . SVG Version: 6.00 Build 0)  -->
<svg version="1.1" id="vimeo" xmlns="http://www.w3.org/2000/svg" xmlns:xlink="http://www.w3.org/1999/xlink" x="0px" y="0px"
	 viewBox="0 0 612 792" enable-background="new 0 0 612 792" xml:space="preserve">
<path fill="#FFFFFF" d="M306,102.2C143.8,102.2,12.2,233.8,12.2,396S143.8,689.8,306,689.8S599.8,558.2,599.8,396
	S468.2,102.2,306,102.2z M484.1,347.4C464,460.6,351.7,556.6,317.9,578.5c-33.8,21.9-64.6-8.8-75.8-32
	c-12.8-26.5-51.2-169.9-61.2-181.8c-10.1-11.9-40.2,11.9-40.2,11.9l-14.6-19.2c0,0,61.2-73.1,107.8-82.2
	c49.4-9.7,49.3,75.8,61.2,123.3c11.5,45.9,19.2,72.2,29.2,72.2c10.1,0,29.2-25.6,50.2-64.9c21-39.3-0.9-74-42-49.3
	C348.9,257.9,504.2,234.1,484.1,347.4z"/>
</svg>
