<?xml version="1.0" standalone="no"?>
<!DOCTYPE svg PUBLIC "-//W3C//DTD SVG 20010904//EN"
 "http://www.w3.org/TR/2001/REC-SVG-20010904/DTD/svg10.dtd">
<svg version="1.0" xmlns="http://www.w3.org/2000/svg"
 width="776.000000pt" height="776.000000pt" viewBox="0 0 776.000000 776.000000"
 preserveAspectRatio="xMidYMid meet">
<metadata>
Created by potrace 1.11, written by Peter Selinger 2001-2013
</metadata>
<g transform="translate(0.000000,776.000000) scale(0.100000,-0.100000)"
fill="#000000" stroke="none">
<path d="M3634 7575 c-126 -74 -234 -138 -240 -144 -7 -5 -14 -8 -17 -5 -2 2
-10 -2 -17 -11 -7 -8 -19 -15 -26 -15 -8 0 -14 -4 -14 -10 0 -5 -6 -10 -13
-10 -7 0 -19 -6 -25 -12 -7 -7 -16 -13 -20 -13 -4 0 -19 -8 -34 -18 -16 -9
-40 -25 -55 -34 -16 -10 -30 -18 -33 -18 -7 -2 -62 -34 -113 -66 -23 -15 -76
-46 -117 -70 -41 -24 -84 -49 -95 -56 -11 -7 -26 -15 -34 -19 -8 -4 -119 -69
-246 -144 -127 -75 -238 -140 -246 -143 -8 -4 -27 -16 -44 -27 -16 -11 -41
-26 -55 -33 -40 -19 -121 -68 -170 -101 -25 -17 -47 -30 -50 -30 -3 1 -14 -5
-25 -12 -27 -17 -289 -170 -345 -202 -25 -14 -56 -33 -70 -42 -14 -9 -50 -30
-80 -46 -30 -16 -57 -32 -60 -35 -3 -3 -25 -17 -50 -31 -25 -14 -85 -49 -135
-78 -49 -29 -112 -66 -140 -82 -27 -16 -66 -38 -85 -50 -243 -143 -735 -431
-766 -448 -53 -30 -100 -84 -111 -128 -10 -46 -10 -2858 1 -2891 20 -59 83
-103 151 -103 48 0 53 3 296 147 83 50 168 99 188 110 20 11 38 23 41 26 3 3
25 16 50 30 25 13 47 26 50 29 11 11 46 31 73 41 15 6 27 15 27 20 0 5 5 9 10
9 9 0 57 27 136 77 10 7 37 22 59 34 22 12 59 35 83 51 23 16 42 25 42 21 0
-4 4 -3 8 2 6 10 212 135 292 179 19 10 46 26 60 35 14 9 34 21 45 28 115 68
159 93 166 93 5 0 9 5 9 10 0 6 4 10 8 10 5 0 83 44 173 98 241 144 271 160
304 165 74 10 146 -38 163 -110 7 -28 9 -538 2 -538 0 0 -3 -180 -5 -400 -3
-220 -7 -411 -10 -424 -8 -39 -48 -73 -173 -147 -64 -38 -125 -75 -137 -81
-11 -7 -28 -16 -37 -19 -10 -3 -18 -9 -18 -13 0 -4 -16 -13 -35 -20 -19 -7
-35 -16 -35 -21 0 -5 -10 -12 -22 -16 -13 -4 -41 -19 -63 -33 -57 -36 -78 -49
-95 -57 -8 -4 -53 -31 -100 -59 -47 -28 -92 -54 -100 -58 -8 -4 -33 -18 -55
-32 -22 -13 -60 -36 -85 -50 -108 -61 -205 -118 -210 -124 -3 -3 -23 -15 -45
-27 -52 -27 -209 -117 -215 -124 -3 -3 -18 -12 -35 -20 -16 -8 -32 -18 -35
-21 -3 -3 -30 -19 -60 -36 -113 -63 -205 -118 -208 -125 -2 -5 -8 -8 -12 -8
-17 0 -575 -331 -603 -358 -45 -43 -53 -94 -52 -327 1 -116 5 -224 9 -241 8
-36 47 -75 91 -93 56 -21 109 -4 257 84 9 6 29 17 45 26 15 9 158 91 317 183
158 91 292 166 297 166 5 0 9 3 9 8 0 4 10 12 23 18 12 5 130 73 262 149 132
76 258 148 280 159 22 12 42 24 45 27 3 3 32 20 65 38 33 18 65 36 70 41 6 4
30 19 55 32 45 25 374 214 550 316 89 52 184 106 262 150 18 11 88 51 155 91
68 39 127 71 133 71 5 0 10 5 10 10 0 6 5 10 10 10 26 0 91 54 115 94 l26 45
5 838 c11 1701 11 2028 1 2058 -22 67 -99 114 -164 100 -15 -4 -33 -7 -40 -7
-7 -1 -14 -7 -17 -15 -3 -7 -15 -13 -26 -13 -11 0 -20 -3 -20 -8 0 -4 -21 -18
-47 -32 -27 -13 -50 -27 -53 -30 -10 -11 -282 -170 -291 -170 -5 0 -9 -4 -9
-8 0 -5 -16 -14 -35 -22 -19 -8 -35 -17 -35 -20 0 -4 -18 -15 -40 -25 -22 -10
-40 -22 -40 -27 0 -4 -5 -8 -10 -8 -6 0 -44 -20 -84 -45 -41 -25 -79 -45 -85
-45 -6 0 -11 -3 -11 -8 0 -4 -21 -18 -47 -32 -27 -13 -50 -27 -53 -30 -9 -9
-128 -80 -135 -80 -3 0 -25 -13 -48 -28 -23 -16 -49 -32 -57 -35 -8 -4 -28
-16 -45 -27 -16 -11 -37 -23 -45 -27 -8 -5 -60 -35 -115 -68 -55 -33 -108 -64
-117 -70 -17 -9 -73 -43 -419 -249 -100 -59 -158 -88 -185 -90 -68 -7 -137 35
-155 96 -10 32 -15 1340 -5 1383 2 11 5 23 5 27 3 28 151 127 405 271 11 7 25
16 30 20 25 19 198 117 206 117 4 0 10 4 12 8 4 10 125 82 138 82 4 0 10 3 12
8 3 6 108 72 173 108 26 14 156 92 175 105 8 5 23 12 33 15 9 4 17 10 17 15 0
5 4 9 9 9 4 0 48 25 97 55 49 30 100 60 114 68 34 18 197 115 240 142 41 26
256 155 285 171 11 6 66 38 123 72 56 34 106 62 111 62 5 0 11 7 15 15 3 8 14
15 25 15 11 0 21 4 23 8 2 5 37 28 78 53 41 24 87 50 101 59 14 8 67 40 118
70 108 65 98 59 226 134 55 33 102 62 105 65 3 3 30 19 60 35 30 17 61 36 68
43 7 7 20 13 28 13 8 0 14 4 14 8 0 9 80 39 93 34 4 -1 15 -4 25 -6 21 -4 69
-26 102 -47 14 -9 102 -61 195 -116 94 -55 271 -160 395 -234 124 -74 232
-136 240 -138 8 -2 17 -7 20 -11 3 -4 55 -36 115 -72 321 -190 393 -233 420
-248 17 -9 60 -36 98 -58 37 -23 72 -42 77 -42 6 0 10 -3 10 -7 0 -5 10 -13
23 -19 35 -17 92 -49 97 -54 3 -3 16 -11 29 -18 66 -38 98 -56 240 -141 84
-50 157 -91 161 -91 5 0 10 -4 12 -8 2 -4 23 -19 48 -33 62 -35 92 -53 268
-158 85 -50 156 -91 158 -91 2 0 28 -15 57 -34 28 -18 104 -64 167 -101 119
-71 153 -100 170 -148 6 -18 9 -277 9 -700 -1 -637 -2 -673 -20 -708 -22 -44
-75 -80 -121 -81 -45 -2 -51 1 -136 50 -40 23 -78 42 -83 42 -5 0 -9 4 -9 9 0
5 -11 12 -25 15 -14 4 -25 11 -25 16 0 6 -4 10 -10 10 -5 0 -121 66 -257 146
-298 175 -251 148 -408 239 -71 41 -137 80 -145 85 -8 5 -60 35 -115 67 -55
31 -101 61 -103 65 -2 4 -8 8 -12 8 -8 0 -56 27 -342 196 -62 37 -129 76 -148
87 -19 11 -48 28 -65 38 -16 10 -48 29 -70 41 -22 12 -49 28 -60 35 -107 67
-219 51 -262 -37 -19 -39 -17 129 -28 -1787 -6 -1082 -6 -1103 14 -1140 23
-46 46 -65 120 -106 31 -17 58 -33 61 -37 3 -4 10 -9 15 -11 11 -4 216 -124
333 -195 41 -24 78 -44 83 -44 5 0 9 -4 9 -10 0 -5 5 -10 11 -10 6 0 31 -13
56 -30 24 -16 46 -30 48 -30 3 0 67 -37 142 -82 177 -106 172 -103 213 -124
19 -10 40 -22 45 -27 6 -5 116 -71 245 -147 129 -76 240 -144 247 -149 7 -6
15 -11 18 -11 7 0 488 -284 527 -311 15 -10 29 -19 32 -19 3 0 85 -48 183
-106 97 -58 188 -112 202 -120 15 -8 40 -23 56 -34 17 -10 46 -27 65 -37 19
-9 37 -20 40 -24 3 -3 32 -21 65 -39 74 -39 143 -39 189 1 64 55 59 -177 60
2704 1 1441 -1 2637 -5 2659 -4 21 -15 50 -26 65 -18 24 -93 76 -170 118 -88
49 -290 169 -301 180 -7 7 -18 13 -23 13 -5 0 -28 12 -52 28 -23 15 -47 29
-52 32 -6 3 -52 30 -103 60 -51 30 -100 60 -110 65 -40 23 -248 147 -262 155
-8 5 -89 53 -180 106 -91 53 -177 105 -192 115 -15 10 -30 19 -33 19 -3 0 -24
11 -46 26 -22 14 -55 33 -73 44 -18 10 -44 24 -57 32 -13 7 -31 18 -39 24 -8
6 -36 23 -61 37 -77 42 -94 52 -99 58 -3 3 -12 9 -20 12 -8 4 -37 21 -65 37
-27 16 -57 33 -65 37 -8 3 -17 10 -20 13 -3 4 -17 13 -32 21 -14 8 -68 39
-120 69 -117 69 -108 64 -229 135 -56 33 -113 67 -128 75 -14 9 -45 28 -68 43
-24 15 -44 27 -46 27 -3 0 -57 32 -121 70 -65 39 -121 70 -127 70 -5 0 -9 4
-9 9 0 5 -8 11 -17 14 -18 6 -73 37 -83 47 -3 3 -16 11 -29 18 -13 8 -38 22
-56 32 -18 10 -43 24 -56 32 -13 7 -26 16 -29 19 -3 3 -30 19 -60 36 -30 16
-124 71 -208 121 -85 51 -158 92 -163 92 -5 0 -9 5 -9 10 0 6 -6 10 -13 10 -7
0 -18 5 -25 12 -14 14 -33 19 -83 23 -31 2 -70 -17 -265 -130z m1909 -3962
c45 -26 88 -53 95 -60 7 -7 17 -13 22 -13 4 0 66 -34 137 -77 70 -42 143 -84
161 -95 77 -44 101 -58 175 -102 43 -25 83 -46 88 -46 5 0 9 -4 9 -10 0 -5 5
-10 10 -10 6 0 29 -11 51 -26 38 -24 53 -33 147 -85 20 -12 48 -29 62 -39 14
-9 30 -19 35 -21 6 -2 95 -53 198 -114 103 -60 196 -115 207 -121 32 -17 61
-47 78 -79 15 -27 16 -105 17 -718 1 -554 -1 -690 -12 -699 -7 -6 -13 -16 -13
-22 0 -7 -11 -22 -24 -33 -58 -51 -133 -50 -210 2 -20 13 -36 22 -36 18 0 -3
-8 1 -17 9 -10 8 -72 46 -138 84 -66 38 -127 74 -136 79 -9 6 -36 21 -60 34
-24 13 -62 36 -84 51 -22 15 -42 27 -45 27 -3 0 -23 11 -45 25 -22 13 -47 27
-55 31 -18 8 -53 30 -60 37 -3 3 -16 11 -30 18 -14 7 -46 24 -71 40 -159 93
-192 112 -200 112 -5 0 -9 5 -9 10 0 6 -4 10 -9 10 -4 0 -60 30 -122 67 -63
36 -134 78 -159 92 -25 13 -47 28 -50 31 -3 4 -20 13 -37 21 -18 8 -33 17 -33
21 0 5 -6 8 -13 8 -8 0 -24 9 -37 20 -13 11 -28 20 -34 20 -13 0 -39 28 -55
58 -7 13 -11 246 -11 706 0 665 0 688 20 725 19 38 82 87 98 77 4 -2 14 -1 21
3 18 12 79 -12 174 -66z"/>
</g>
</svg>
